<?xml version="1.0" encoding="UTF-8"?>
<svg width="512" height="512" viewBox="0 0 512 512" xmlns="http://www.w3.org/2000/svg">
  <defs>
    <linearGradient id="goldenGrad" x1="0%" y1="0%" x2="100%" y2="100%">
      <stop offset="0%" stop-color="#FFD700"/>
      <stop offset="50%" stop-color="#c9a84e"/>
      <stop offset="100%" stop-color="#B8860B"/>
    </linearGradient>
    <radialGradient id="bgGrad" cx="50%" cy="50%" r="50%">
      <stop offset="0%" stop-color="#1a1a1a"/>
      <stop offset="100%" stop-color="#0a0a0a"/>
    </radialGradient>
    <filter id="glow">
      <feGaussianBlur stdDeviation="2" result="coloredBlur"/>
      <feMerge>
        <feMergeNode in="coloredBlur"/>
        <feMergeNode in="SourceGraphic"/>
      </feMerge>
    </filter>
  </defs>

  <!-- Background with rounded corners -->
  <rect width="512" height="512" fill="url(#bgGrad)" rx="61.44"/>

  <!-- Fibonacci rectangles (subtle background pattern) -->
  <g opacity="0.15">
    <rect x="245.5236923076923" y="245.5236923076923"
              width="20.95261538461538" height="20.95261538461538"
              fill="#c9a84e"
              opacity="0.3"
              rx="1.6762092307692305"
              transform="rotate(0 256 256)"/>
    <rect x="245.5236923076923" y="251.80947692307691"
              width="20.95261538461538" height="20.95261538461538"
              fill="#c9a84e"
              opacity="0.35714285714285715"
              rx="1.6762092307692305"
              transform="rotate(90 256 262.2857846153846)"/>
    <rect x="228.76160000000002" y="241.33316923076924"
              width="41.90523076923076" height="41.90523076923076"
              fill="#c9a84e"
              opacity="0.41428571428571426"
              rx="3.352418461538461"
              transform="rotate(180 249.7142153846154 262.2857846153846)"/>
    <rect x="218.28529230769232" y="218.28529230769232"
              width="62.85784615384614" height="62.85784615384614"
              fill="#c9a84e"
              opacity="0.4714285714285714"
              rx="5.028627692307691"
              transform="rotate(270 249.7142153846154 249.7142153846154)"/>
    <rect x="216.19003076923076" y="197.33267692307692"
              width="104.76307692307691" height="104.76307692307691"
              fill="#c9a84e"
              opacity="0.5285714285714286"
              rx="8.381046153846153"
              transform="rotate(360 268.5715692307692 249.7142153846154)"/>
    <rect x="184.7611076923077" y="197.33267692307692"
              width="167.62092307692305" height="167.62092307692305"
              fill="#c9a84e"
              opacity="0.5857142857142857"
              rx="13.409673846153844"
              transform="rotate(450 268.5715692307692 281.14313846153846)"/>
    <rect x="82.09329230769234" y="144.95113846153848"
              width="272.38399999999996" height="272.38399999999996"
              fill="#c9a84e"
              opacity="0.6428571428571428"
              rx="21.790719999999997"
              transform="rotate(540 218.28529230769232 281.14313846153846)"/>
    
  </g>

  <!-- Outer circle -->
  <circle cx="256" cy="256" r="214.01600000000002"
          fill="none" stroke="url(#goldenGrad)" stroke-width="3.072" opacity="0.3"/>

  <!-- Golden spiral -->
  <path d="M 258.82 256.00 L 258.89 256.27 L 258.93 256.55 L 258.95 256.84 L 258.94 257.14 L 258.91 257.44 L 258.84 257.75 L 258.74 258.06 L 258.62 258.37 L 258.45 258.68 L 258.26 258.98 L 258.03 259.26 L 257.77 259.53 L 257.48 259.79 L 257.16 260.02 L 256.81 260.23 L 256.43 260.41 L 256.02 260.55 L 255.59 260.67 L 255.14 260.74 L 254.67 260.77 L 254.18 260.76 L 253.69 260.71 L 253.19 260.60 L 252.68 260.45 L 252.18 260.24 L 251.69 259.98 L 251.20 259.67 L 250.74 259.31 L 250.30 258.89 L 249.89 258.42 L 249.51 257.90 L 249.17 257.33 L 248.88 256.72 L 248.64 256.06 L 248.46 255.37 L 248.33 254.64 L 248.28 253.88 L 248.29 253.10 L 248.38 252.30 L 248.54 251.48 L 248.79 250.67 L 249.12 249.86 L 249.53 249.06 L 250.03 248.28 L 250.62 247.52 L 251.29 246.81 L 252.05 246.14 L 252.89 245.53 L 253.80 244.98 L 254.79 244.50 L 255.85 244.11 L 256.97 243.81 L 258.15 243.60 L 259.38 243.51 L 260.64 243.52 L 261.93 243.66 L 263.25 243.92 L 264.57 244.31 L 265.88 244.84 L 267.18 245.50 L 268.44 246.31 L 269.66 247.25 L 270.82 248.33 L 271.91 249.55 L 272.90 250.90 L 273.80 252.37 L 274.57 253.97 L 275.21 255.68 L 275.71 257.49 L 276.05 259.39 L 276.21 261.37 L 276.20 263.41 L 275.98 265.51 L 275.57 267.63 L 274.94 269.76 L 274.10 271.89 L 273.04 273.99 L 271.75 276.04 L 270.23 278.02 L 268.49 279.90 L 266.53 281.66 L 264.36 283.28 L 261.98 284.73 L 259.41 286.00 L 256.65 287.05 L 253.73 287.86 L 250.66 288.42 L 247.46 288.70 L 244.15 288.69 L 240.77 288.36 L 237.34 287.70 L 233.89 286.71 L 230.44 285.36 L 227.05 283.65 L 223.72 281.58 L 220.52 279.15 L 217.47 276.35 L 214.61 273.20 L 211.97 269.70 L 209.61 265.86 L 207.55 261.71 L 205.83 257.26 L 204.50 252.54 L 203.57 247.58 L 203.10 242.42 L 203.10 237.08 L 203.61 231.61 L 204.64 226.06 L 206.23 220.47 L 208.39 214.90 L 211.12 209.40 L 214.44 204.02 L 218.36 198.82 L 222.85 193.87 L 227.93 189.23 L 233.57 184.95 L 239.75 181.10 L 246.45 177.75 L 253.62 174.94 L 261.24 172.75 L 269.24 171.23 L 277.59 170.42 L 286.22 170.39 L 295.05 171.17 L 304.03 172.81 L 313.07 175.34 L 322.09 178.78 L 331.00 183.16 L 339.72 188.50 L 348.14 194.78 L 356.17 202.02 L 363.71 210.19 L 370.66 219.27 L 376.92 229.24 L 382.39 240.03 L 386.97 251.61 L 390.56 263.90 L 393.08 276.83 L 394.43 290.31 L 394.55 304.25 L 393.34 318.53 L 390.75 333.05 L 386.73 347.68 L 381.23 362.28 L 374.21 376.71 L 365.65 390.83 L 355.55 404.48 L 343.91 417.50 L 330.75 429.74 L 316.12 441.04"
        stroke="url(#goldenGrad)"
        stroke-width="6.144"
        fill="none"
        stroke-linecap="round"
        filter="url(#glow)"/>

  <!-- Central phi symbol -->
  <text x="256" y="332.8"
        font-family="Georgia, serif"
        font-size="204.8"
        font-weight="bold"
        fill="url(#goldenGrad)"
        text-anchor="middle"
        opacity="0.95"
        filter="url(#glow)">φ</text>

  <!-- Small golden ratio value -->
  <text x="256" y="435.2"
        font-family="monospace"
        font-size="30.72"
        fill="#c9a84e"
        text-anchor="middle"
        opacity="0.7">1.618</text>
</svg>