<?xml version="1.0" encoding="UTF-8"?>
<svg width="96" height="96" viewBox="0 0 96 96" xmlns="http://www.w3.org/2000/svg">
  <defs>
    <linearGradient id="goldenGrad" x1="0%" y1="0%" x2="100%" y2="100%">
      <stop offset="0%" stop-color="#FFD700"/>
      <stop offset="50%" stop-color="#c9a84e"/>
      <stop offset="100%" stop-color="#B8860B"/>
    </linearGradient>
    <radialGradient id="bgGrad" cx="50%" cy="50%" r="50%">
      <stop offset="0%" stop-color="#1a1a1a"/>
      <stop offset="100%" stop-color="#0a0a0a"/>
    </radialGradient>
    <filter id="glow">
      <feGaussianBlur stdDeviation="2" result="coloredBlur"/>
      <feMerge>
        <feMergeNode in="coloredBlur"/>
        <feMergeNode in="SourceGraphic"/>
      </feMerge>
    </filter>
  </defs>

  <!-- Background with rounded corners -->
  <rect width="96" height="96" fill="url(#bgGrad)" rx="11.52"/>

  <!-- Fibonacci rectangles (subtle background pattern) -->
  <g opacity="0.15">
    <rect x="46.03569230769231" y="46.03569230769231"
              width="3.9286153846153846" height="3.9286153846153846"
              fill="#c9a84e"
              opacity="0.3"
              rx="0.31428923076923077"
              transform="rotate(0 48 48)"/>
    <rect x="46.03569230769231" y="47.21427692307692"
              width="3.9286153846153846" height="3.9286153846153846"
              fill="#c9a84e"
              opacity="0.35714285714285715"
              rx="0.31428923076923077"
              transform="rotate(90 48 49.178584615384615)"/>
    <rect x="42.8928" y="45.24996923076923"
              width="7.857230769230769" height="7.857230769230769"
              fill="#c9a84e"
              opacity="0.41428571428571426"
              rx="0.6285784615384615"
              transform="rotate(180 46.821415384615385 49.178584615384615)"/>
    <rect x="40.92849230769231" y="40.92849230769231"
              width="11.785846153846155" height="11.785846153846155"
              fill="#c9a84e"
              opacity="0.4714285714285714"
              rx="0.9428676923076924"
              transform="rotate(270 46.821415384615385 46.821415384615385)"/>
    <rect x="40.53563076923077" y="36.999876923076926"
              width="19.643076923076922" height="19.643076923076922"
              fill="#c9a84e"
              opacity="0.5285714285714286"
              rx="1.5714461538461537"
              transform="rotate(360 50.35716923076923 46.821415384615385)"/>
    <rect x="34.642707692307695" y="36.999876923076926"
              width="31.428923076923077" height="31.428923076923077"
              fill="#c9a84e"
              opacity="0.5857142857142857"
              rx="2.514313846153846"
              transform="rotate(450 50.35716923076923 52.71433846153846)"/>
    <rect x="15.392492307692308" y="27.17833846153846"
              width="51.072" height="51.072"
              fill="#c9a84e"
              opacity="0.6428571428571428"
              rx="4.0857600000000005"
              transform="rotate(540 40.92849230769231 52.71433846153846)"/>
    
  </g>

  <!-- Outer circle -->
  <circle cx="48" cy="48" r="40.12800000000001"
          fill="none" stroke="url(#goldenGrad)" stroke-width="1" opacity="0.3"/>

  <!-- Golden spiral -->
  <path d="M 48.53 48.00 L 48.54 48.05 L 48.55 48.10 L 48.55 48.16 L 48.55 48.21 L 48.55 48.27 L 48.53 48.33 L 48.51 48.39 L 48.49 48.45 L 48.46 48.50 L 48.42 48.56 L 48.38 48.61 L 48.33 48.66 L 48.28 48.71 L 48.22 48.75 L 48.15 48.79 L 48.08 48.83 L 48.00 48.85 L 47.92 48.87 L 47.84 48.89 L 47.75 48.90 L 47.66 48.89 L 47.57 48.88 L 47.47 48.86 L 47.38 48.83 L 47.28 48.80 L 47.19 48.75 L 47.10 48.69 L 47.01 48.62 L 46.93 48.54 L 46.85 48.45 L 46.78 48.36 L 46.72 48.25 L 46.67 48.13 L 46.62 48.01 L 46.59 47.88 L 46.56 47.74 L 46.55 47.60 L 46.55 47.46 L 46.57 47.31 L 46.60 47.15 L 46.65 47.00 L 46.71 46.85 L 46.79 46.70 L 46.88 46.55 L 46.99 46.41 L 47.12 46.28 L 47.26 46.15 L 47.42 46.04 L 47.59 45.93 L 47.77 45.84 L 47.97 45.77 L 48.18 45.71 L 48.40 45.68 L 48.63 45.66 L 48.87 45.66 L 49.11 45.69 L 49.36 45.74 L 49.61 45.81 L 49.85 45.91 L 50.10 46.03 L 50.33 46.18 L 50.56 46.36 L 50.78 46.56 L 50.98 46.79 L 51.17 47.04 L 51.34 47.32 L 51.48 47.62 L 51.60 47.94 L 51.70 48.28 L 51.76 48.64 L 51.79 49.01 L 51.79 49.39 L 51.75 49.78 L 51.67 50.18 L 51.55 50.58 L 51.39 50.98 L 51.19 51.37 L 50.95 51.76 L 50.67 52.13 L 50.34 52.48 L 49.98 52.81 L 49.57 53.11 L 49.12 53.39 L 48.64 53.62 L 48.12 53.82 L 47.57 53.97 L 47.00 54.08 L 46.40 54.13 L 45.78 54.13 L 45.15 54.07 L 44.50 53.94 L 43.85 53.76 L 43.21 53.50 L 42.57 53.18 L 41.95 52.80 L 41.35 52.34 L 40.78 51.82 L 40.24 51.22 L 39.75 50.57 L 39.30 49.85 L 38.92 49.07 L 38.59 48.24 L 38.34 47.35 L 38.17 46.42 L 38.08 45.45 L 38.08 44.45 L 38.18 43.43 L 38.37 42.39 L 38.67 41.34 L 39.07 40.29 L 39.59 39.26 L 40.21 38.25 L 40.94 37.28 L 41.79 36.35 L 42.74 35.48 L 43.79 34.68 L 44.95 33.96 L 46.21 33.33 L 47.55 32.80 L 48.98 32.39 L 50.48 32.11 L 52.05 31.95 L 53.67 31.95 L 55.32 32.09 L 57.01 32.40 L 58.70 32.88 L 60.39 33.52 L 62.06 34.34 L 63.70 35.34 L 65.28 36.52 L 66.78 37.88 L 68.20 39.41 L 69.50 41.11 L 70.67 42.98 L 71.70 45.01 L 72.56 47.18 L 73.23 49.48 L 73.70 51.91 L 73.96 54.43 L 73.98 57.05 L 73.75 59.72 L 73.27 62.45 L 72.51 65.19 L 71.48 67.93 L 70.16 70.63 L 68.56 73.28 L 66.67 75.84 L 64.48 78.28 L 62.02 80.58 L 59.27 82.69"
        stroke="url(#goldenGrad)"
        stroke-width="2"
        fill="none"
        stroke-linecap="round"
        filter="url(#glow)"/>

  <!-- Central phi symbol -->
  <text x="48" y="62.4"
        font-family="Georgia, serif"
        font-size="38.400000000000006"
        font-weight="bold"
        fill="url(#goldenGrad)"
        text-anchor="middle"
        opacity="0.95"
        filter="url(#glow)">φ</text>

  <!-- Small golden ratio value -->
  <text x="48" y="81.6"
        font-family="monospace"
        font-size="5.76"
        fill="#c9a84e"
        text-anchor="middle"
        opacity="0.7">1.618</text>
</svg>