<?xml version="1.0" encoding="UTF-8"?>
<svg width="192" height="192" viewBox="0 0 192 192" xmlns="http://www.w3.org/2000/svg">
  <defs>
    <linearGradient id="goldenGrad" x1="0%" y1="0%" x2="100%" y2="100%">
      <stop offset="0%" stop-color="#FFD700"/>
      <stop offset="50%" stop-color="#c9a84e"/>
      <stop offset="100%" stop-color="#B8860B"/>
    </linearGradient>
    <radialGradient id="bgGrad" cx="50%" cy="50%" r="50%">
      <stop offset="0%" stop-color="#1a1a1a"/>
      <stop offset="100%" stop-color="#0a0a0a"/>
    </radialGradient>
    <filter id="glow">
      <feGaussianBlur stdDeviation="2" result="coloredBlur"/>
      <feMerge>
        <feMergeNode in="coloredBlur"/>
        <feMergeNode in="SourceGraphic"/>
      </feMerge>
    </filter>
  </defs>

  <!-- Background with rounded corners -->
  <rect width="192" height="192" fill="url(#bgGrad)" rx="23.04"/>

  <!-- Fibonacci rectangles (subtle background pattern) -->
  <g opacity="0.15">
    <rect x="92.07138461538462" y="92.07138461538462"
              width="7.857230769230769" height="7.857230769230769"
              fill="#c9a84e"
              opacity="0.3"
              rx="0.6285784615384615"
              transform="rotate(0 96 96)"/>
    <rect x="92.07138461538462" y="94.42855384615385"
              width="7.857230769230769" height="7.857230769230769"
              fill="#c9a84e"
              opacity="0.35714285714285715"
              rx="0.6285784615384615"
              transform="rotate(90 96 98.35716923076923)"/>
    <rect x="85.7856" y="90.49993846153846"
              width="15.714461538461538" height="15.714461538461538"
              fill="#c9a84e"
              opacity="0.41428571428571426"
              rx="1.257156923076923"
              transform="rotate(180 93.64283076923077 98.35716923076923)"/>
    <rect x="81.85698461538462" y="81.85698461538462"
              width="23.57169230769231" height="23.57169230769231"
              fill="#c9a84e"
              opacity="0.4714285714285714"
              rx="1.8857353846153848"
              transform="rotate(270 93.64283076923077 93.64283076923077)"/>
    <rect x="81.07126153846154" y="73.99975384615385"
              width="39.286153846153844" height="39.286153846153844"
              fill="#c9a84e"
              opacity="0.5285714285714286"
              rx="3.1428923076923074"
              transform="rotate(360 100.71433846153846 93.64283076923077)"/>
    <rect x="69.28541538461539" y="73.99975384615385"
              width="62.857846153846154" height="62.857846153846154"
              fill="#c9a84e"
              opacity="0.5857142857142857"
              rx="5.028627692307692"
              transform="rotate(450 100.71433846153846 105.42867692307692)"/>
    <rect x="30.784984615384616" y="54.35667692307692"
              width="102.144" height="102.144"
              fill="#c9a84e"
              opacity="0.6428571428571428"
              rx="8.171520000000001"
              transform="rotate(540 81.85698461538462 105.42867692307692)"/>
    
  </g>

  <!-- Outer circle -->
  <circle cx="96" cy="96" r="80.25600000000001"
          fill="none" stroke="url(#goldenGrad)" stroke-width="1.1520000000000001" opacity="0.3"/>

  <!-- Golden spiral -->
  <path d="M 97.06 96.00 L 97.08 96.10 L 97.10 96.20 L 97.11 96.31 L 97.10 96.43 L 97.09 96.54 L 97.07 96.66 L 97.03 96.77 L 96.98 96.89 L 96.92 97.00 L 96.85 97.12 L 96.76 97.22 L 96.66 97.33 L 96.56 97.42 L 96.43 97.51 L 96.30 97.59 L 96.16 97.65 L 96.01 97.71 L 95.85 97.75 L 95.68 97.78 L 95.50 97.79 L 95.32 97.79 L 95.13 97.77 L 94.94 97.73 L 94.76 97.67 L 94.57 97.59 L 94.38 97.49 L 94.20 97.38 L 94.03 97.24 L 93.86 97.08 L 93.71 96.91 L 93.57 96.71 L 93.44 96.50 L 93.33 96.27 L 93.24 96.02 L 93.17 95.76 L 93.13 95.49 L 93.10 95.20 L 93.11 94.91 L 93.14 94.61 L 93.20 94.31 L 93.30 94.00 L 93.42 93.70 L 93.58 93.40 L 93.76 93.10 L 93.98 92.82 L 94.23 92.55 L 94.52 92.30 L 94.83 92.07 L 95.18 91.87 L 95.55 91.69 L 95.94 91.54 L 96.36 91.43 L 96.81 91.35 L 97.27 91.31 L 97.74 91.32 L 98.23 91.37 L 98.72 91.47 L 99.21 91.62 L 99.71 91.82 L 100.19 92.06 L 100.67 92.37 L 101.12 92.72 L 101.56 93.12 L 101.96 93.58 L 102.34 94.09 L 102.67 94.64 L 102.96 95.24 L 103.21 95.88 L 103.39 96.56 L 103.52 97.27 L 103.58 98.01 L 103.57 98.78 L 103.49 99.56 L 103.34 100.36 L 103.10 101.16 L 102.79 101.96 L 102.39 102.75 L 101.90 103.51 L 101.34 104.26 L 100.68 104.96 L 99.95 105.62 L 99.14 106.23 L 98.24 106.77 L 97.28 107.25 L 96.24 107.64 L 95.15 107.95 L 94.00 108.16 L 92.80 108.26 L 91.56 108.26 L 90.29 108.13 L 89.00 107.89 L 87.71 107.51 L 86.42 107.01 L 85.14 106.37 L 83.90 105.59 L 82.70 104.68 L 81.55 103.63 L 80.48 102.45 L 79.49 101.14 L 78.60 99.70 L 77.83 98.14 L 77.19 96.47 L 76.69 94.70 L 76.34 92.84 L 76.16 90.91 L 76.16 88.91 L 76.35 86.86 L 76.74 84.77 L 77.34 82.68 L 78.15 80.59 L 79.17 78.52 L 80.42 76.51 L 81.88 74.56 L 83.57 72.70 L 85.47 70.96 L 87.59 69.36 L 89.91 67.91 L 92.42 66.66 L 95.11 65.60 L 97.96 64.78 L 100.97 64.21 L 104.10 63.91 L 107.33 63.90 L 110.64 64.19 L 114.01 64.80 L 117.40 65.75 L 120.78 67.04 L 124.13 68.69 L 127.39 70.69 L 130.55 73.04 L 133.56 75.76 L 136.39 78.82 L 139.00 82.23 L 141.35 85.96 L 143.40 90.01 L 145.11 94.35 L 146.46 98.96 L 147.40 103.81 L 147.91 108.87 L 147.95 114.09 L 147.50 119.45 L 146.53 124.89 L 145.02 130.38 L 142.96 135.85 L 140.33 141.27 L 137.12 146.56 L 133.33 151.68 L 128.97 156.56 L 124.03 161.15 L 118.55 165.39"
        stroke="url(#goldenGrad)"
        stroke-width="2.3040000000000003"
        fill="none"
        stroke-linecap="round"
        filter="url(#glow)"/>

  <!-- Central phi symbol -->
  <text x="96" y="124.8"
        font-family="Georgia, serif"
        font-size="76.80000000000001"
        font-weight="bold"
        fill="url(#goldenGrad)"
        text-anchor="middle"
        opacity="0.95"
        filter="url(#glow)">φ</text>

  <!-- Small golden ratio value -->
  <text x="96" y="163.2"
        font-family="monospace"
        font-size="11.52"
        fill="#c9a84e"
        text-anchor="middle"
        opacity="0.7">1.618</text>
</svg>