<?xml version="1.0" encoding="UTF-8"?>
<svg width="384" height="384" viewBox="0 0 384 384" xmlns="http://www.w3.org/2000/svg">
  <defs>
    <linearGradient id="goldenGrad" x1="0%" y1="0%" x2="100%" y2="100%">
      <stop offset="0%" stop-color="#FFD700"/>
      <stop offset="50%" stop-color="#c9a84e"/>
      <stop offset="100%" stop-color="#B8860B"/>
    </linearGradient>
    <radialGradient id="bgGrad" cx="50%" cy="50%" r="50%">
      <stop offset="0%" stop-color="#1a1a1a"/>
      <stop offset="100%" stop-color="#0a0a0a"/>
    </radialGradient>
    <filter id="glow">
      <feGaussianBlur stdDeviation="2" result="coloredBlur"/>
      <feMerge>
        <feMergeNode in="coloredBlur"/>
        <feMergeNode in="SourceGraphic"/>
      </feMerge>
    </filter>
  </defs>

  <!-- Background with rounded corners -->
  <rect width="384" height="384" fill="url(#bgGrad)" rx="46.08"/>

  <!-- Fibonacci rectangles (subtle background pattern) -->
  <g opacity="0.15">
    <rect x="184.14276923076923" y="184.14276923076923"
              width="15.714461538461538" height="15.714461538461538"
              fill="#c9a84e"
              opacity="0.3"
              rx="1.257156923076923"
              transform="rotate(0 192 192)"/>
    <rect x="184.14276923076923" y="188.8571076923077"
              width="15.714461538461538" height="15.714461538461538"
              fill="#c9a84e"
              opacity="0.35714285714285715"
              rx="1.257156923076923"
              transform="rotate(90 192 196.71433846153846)"/>
    <rect x="171.5712" y="180.99987692307693"
              width="31.428923076923077" height="31.428923076923077"
              fill="#c9a84e"
              opacity="0.41428571428571426"
              rx="2.514313846153846"
              transform="rotate(180 187.28566153846154 196.71433846153846)"/>
    <rect x="163.71396923076924" y="163.71396923076924"
              width="47.14338461538462" height="47.14338461538462"
              fill="#c9a84e"
              opacity="0.4714285714285714"
              rx="3.7714707692307696"
              transform="rotate(270 187.28566153846154 187.28566153846154)"/>
    <rect x="162.14252307692308" y="147.9995076923077"
              width="78.57230769230769" height="78.57230769230769"
              fill="#c9a84e"
              opacity="0.5285714285714286"
              rx="6.285784615384615"
              transform="rotate(360 201.42867692307692 187.28566153846154)"/>
    <rect x="138.57083076923078" y="147.9995076923077"
              width="125.71569230769231" height="125.71569230769231"
              fill="#c9a84e"
              opacity="0.5857142857142857"
              rx="10.057255384615384"
              transform="rotate(450 201.42867692307692 210.85735384615384)"/>
    <rect x="61.56996923076923" y="108.71335384615384"
              width="204.288" height="204.288"
              fill="#c9a84e"
              opacity="0.6428571428571428"
              rx="16.343040000000002"
              transform="rotate(540 163.71396923076924 210.85735384615384)"/>
    
  </g>

  <!-- Outer circle -->
  <circle cx="192" cy="192" r="160.51200000000003"
          fill="none" stroke="url(#goldenGrad)" stroke-width="2.3040000000000003" opacity="0.3"/>

  <!-- Golden spiral -->
  <path d="M 194.11 192.00 L 194.16 192.20 L 194.20 192.41 L 194.21 192.63 L 194.21 192.85 L 194.18 193.08 L 194.13 193.31 L 194.06 193.55 L 193.96 193.78 L 193.84 194.01 L 193.69 194.23 L 193.52 194.45 L 193.33 194.65 L 193.11 194.84 L 192.87 195.02 L 192.60 195.17 L 192.32 195.31 L 192.01 195.42 L 191.69 195.50 L 191.35 195.56 L 191.00 195.58 L 190.64 195.57 L 190.27 195.53 L 189.89 195.45 L 189.51 195.34 L 189.14 195.18 L 188.76 194.99 L 188.40 194.75 L 188.06 194.48 L 187.73 194.17 L 187.42 193.81 L 187.13 193.42 L 186.88 193.00 L 186.66 192.54 L 186.48 192.05 L 186.34 191.52 L 186.25 190.98 L 186.21 190.41 L 186.22 189.82 L 186.28 189.22 L 186.41 188.61 L 186.59 188.00 L 186.84 187.39 L 187.15 186.79 L 187.53 186.21 L 187.97 185.64 L 188.47 185.11 L 189.04 184.61 L 189.66 184.15 L 190.35 183.73 L 191.09 183.38 L 191.89 183.08 L 192.73 182.85 L 193.61 182.70 L 194.53 182.63 L 195.48 182.64 L 196.45 182.74 L 197.44 182.94 L 198.42 183.23 L 199.41 183.63 L 200.38 184.13 L 201.33 184.73 L 202.25 185.44 L 203.12 186.25 L 203.93 187.16 L 204.68 188.17 L 205.35 189.28 L 205.93 190.48 L 206.41 191.76 L 206.78 193.12 L 207.04 194.54 L 207.16 196.03 L 207.15 197.56 L 206.99 199.13 L 206.68 200.72 L 206.21 202.32 L 205.58 203.92 L 204.78 205.49 L 203.81 207.03 L 202.67 208.51 L 201.37 209.92 L 199.90 211.24 L 198.27 212.46 L 196.49 213.55 L 194.56 214.50 L 192.49 215.29 L 190.30 215.90 L 187.99 216.32 L 185.59 216.53 L 183.12 216.51 L 180.58 216.27 L 178.01 215.78 L 175.42 215.03 L 172.83 214.02 L 170.28 212.74 L 167.79 211.19 L 165.39 209.36 L 163.10 207.26 L 160.96 204.90 L 158.98 202.27 L 157.21 199.40 L 155.66 196.28 L 154.38 192.95 L 153.37 189.41 L 152.68 185.69 L 152.32 181.81 L 152.33 177.81 L 152.71 173.71 L 153.48 169.55 L 154.67 165.36 L 156.29 161.18 L 158.34 157.05 L 160.83 153.01 L 163.77 149.12 L 167.14 145.40 L 170.95 141.92 L 175.18 138.71 L 179.81 135.83 L 184.84 133.31 L 190.22 131.21 L 195.93 129.56 L 201.93 128.42 L 208.19 127.82 L 214.66 127.79 L 221.29 128.38 L 228.02 129.61 L 234.80 131.50 L 241.57 134.09 L 248.25 137.37 L 254.79 141.37 L 261.10 146.09 L 267.13 151.51 L 272.78 157.64 L 278.00 164.46 L 282.69 171.93 L 286.79 180.03 L 290.23 188.71 L 292.92 197.93 L 294.81 207.62 L 295.83 217.73 L 295.91 228.18 L 295.01 238.90 L 293.07 249.79 L 290.05 260.76 L 285.92 271.71 L 280.65 282.53 L 274.24 293.12 L 266.66 303.36 L 257.93 313.13 L 248.07 322.31 L 237.09 330.78"
        stroke="url(#goldenGrad)"
        stroke-width="4.6080000000000005"
        fill="none"
        stroke-linecap="round"
        filter="url(#glow)"/>

  <!-- Central phi symbol -->
  <text x="192" y="249.6"
        font-family="Georgia, serif"
        font-size="153.60000000000002"
        font-weight="bold"
        fill="url(#goldenGrad)"
        text-anchor="middle"
        opacity="0.95"
        filter="url(#glow)">φ</text>

  <!-- Small golden ratio value -->
  <text x="192" y="326.4"
        font-family="monospace"
        font-size="23.04"
        fill="#c9a84e"
        text-anchor="middle"
        opacity="0.7">1.618</text>
</svg>