<?xml version="1.0" encoding="UTF-8"?>
<svg width="152" height="152" viewBox="0 0 152 152" xmlns="http://www.w3.org/2000/svg">
  <defs>
    <linearGradient id="goldenGrad" x1="0%" y1="0%" x2="100%" y2="100%">
      <stop offset="0%" stop-color="#FFD700"/>
      <stop offset="50%" stop-color="#c9a84e"/>
      <stop offset="100%" stop-color="#B8860B"/>
    </linearGradient>
    <radialGradient id="bgGrad" cx="50%" cy="50%" r="50%">
      <stop offset="0%" stop-color="#1a1a1a"/>
      <stop offset="100%" stop-color="#0a0a0a"/>
    </radialGradient>
    <filter id="glow">
      <feGaussianBlur stdDeviation="2" result="coloredBlur"/>
      <feMerge>
        <feMergeNode in="coloredBlur"/>
        <feMergeNode in="SourceGraphic"/>
      </feMerge>
    </filter>
  </defs>

  <!-- Background with rounded corners -->
  <rect width="152" height="152" fill="url(#bgGrad)" rx="18.24"/>

  <!-- Fibonacci rectangles (subtle background pattern) -->
  <g opacity="0.15">
    <rect x="72.88984615384615" y="72.88984615384615"
              width="6.220307692307691" height="6.220307692307691"
              fill="#c9a84e"
              opacity="0.3"
              rx="0.49762461538461533"
              transform="rotate(0 76 76)"/>
    <rect x="72.88984615384615" y="74.75593846153846"
              width="6.220307692307691" height="6.220307692307691"
              fill="#c9a84e"
              opacity="0.35714285714285715"
              rx="0.49762461538461533"
              transform="rotate(90 76 77.86609230769231)"/>
    <rect x="67.9136" y="71.64578461538463"
              width="12.440615384615382" height="12.440615384615382"
              fill="#c9a84e"
              opacity="0.41428571428571426"
              rx="0.9952492307692307"
              transform="rotate(180 74.13390769230769 77.86609230769231)"/>
    <rect x="64.80344615384615" y="64.80344615384617"
              width="18.660923076923073" height="18.660923076923073"
              fill="#c9a84e"
              opacity="0.4714285714285714"
              rx="1.4928738461538458"
              transform="rotate(270 74.13390769230769 74.1339076923077)"/>
    <rect x="64.18141538461538" y="58.583138461538475"
              width="31.101538461538457" height="31.101538461538457"
              fill="#c9a84e"
              opacity="0.5285714285714286"
              rx="2.4881230769230767"
              transform="rotate(360 79.73218461538461 74.1339076923077)"/>
    <rect x="54.85095384615384" y="58.58313846153847"
              width="49.76246153846153" height="49.76246153846153"
              fill="#c9a84e"
              opacity="0.5857142857142857"
              rx="3.9809969230769227"
              transform="rotate(450 79.73218461538461 83.46436923076924)"/>
    <rect x="24.371446153846158" y="43.03236923076924"
              width="80.86399999999999" height="80.86399999999999"
              fill="#c9a84e"
              opacity="0.6428571428571428"
              rx="6.469119999999999"
              transform="rotate(540 64.80344615384615 83.46436923076924)"/>
    
  </g>

  <!-- Outer circle -->
  <circle cx="76" cy="76" r="63.536"
          fill="none" stroke="url(#goldenGrad)" stroke-width="1" opacity="0.3"/>

  <!-- Golden spiral -->
  <path d="M 76.84 76.00 L 76.86 76.08 L 76.87 76.16 L 76.88 76.25 L 76.87 76.34 L 76.86 76.43 L 76.84 76.52 L 76.81 76.61 L 76.78 76.70 L 76.73 76.80 L 76.67 76.88 L 76.60 76.97 L 76.53 77.05 L 76.44 77.12 L 76.34 77.19 L 76.24 77.26 L 76.13 77.31 L 76.01 77.35 L 75.88 77.39 L 75.74 77.41 L 75.60 77.42 L 75.46 77.41 L 75.31 77.40 L 75.16 77.37 L 75.02 77.32 L 74.87 77.26 L 74.72 77.18 L 74.58 77.09 L 74.44 76.98 L 74.31 76.86 L 74.19 76.72 L 74.07 76.56 L 73.97 76.40 L 73.89 76.21 L 73.82 76.02 L 73.76 75.81 L 73.72 75.60 L 73.71 75.37 L 73.71 75.14 L 73.74 74.90 L 73.79 74.66 L 73.86 74.42 L 73.96 74.18 L 74.08 73.94 L 74.23 73.71 L 74.40 73.48 L 74.60 73.27 L 74.83 73.07 L 75.08 72.89 L 75.35 72.73 L 75.64 72.59 L 75.96 72.47 L 76.29 72.38 L 76.64 72.32 L 77.00 72.29 L 77.38 72.30 L 77.76 72.34 L 78.15 72.41 L 78.54 72.53 L 78.93 72.69 L 79.32 72.88 L 79.69 73.12 L 80.06 73.40 L 80.40 73.72 L 80.72 74.08 L 81.02 74.48 L 81.28 74.92 L 81.51 75.40 L 81.70 75.90 L 81.85 76.44 L 81.95 77.01 L 82.00 77.59 L 82.00 78.20 L 81.93 78.82 L 81.81 79.45 L 81.62 80.09 L 81.37 80.72 L 81.06 81.34 L 80.67 81.95 L 80.23 82.54 L 79.71 83.09 L 79.13 83.62 L 78.48 84.10 L 77.78 84.53 L 77.01 84.91 L 76.19 85.22 L 75.33 85.46 L 74.41 85.62 L 73.46 85.71 L 72.48 85.70 L 71.48 85.61 L 70.46 85.41 L 69.44 85.12 L 68.41 84.72 L 67.40 84.21 L 66.42 83.59 L 65.47 82.87 L 64.56 82.04 L 63.71 81.11 L 62.93 80.07 L 62.23 78.93 L 61.62 77.69 L 61.11 76.37 L 60.71 74.97 L 60.44 73.50 L 60.30 71.97 L 60.30 70.38 L 60.45 68.76 L 60.75 67.11 L 61.23 65.45 L 61.86 63.80 L 62.68 62.16 L 63.66 60.57 L 64.82 59.03 L 66.16 57.56 L 67.67 56.18 L 69.34 54.91 L 71.18 53.76 L 73.16 52.77 L 75.29 51.94 L 77.55 51.29 L 79.93 50.83 L 82.41 50.59 L 84.97 50.58 L 87.59 50.82 L 90.26 51.30 L 92.94 52.05 L 95.62 53.08 L 98.27 54.38 L 100.85 55.96 L 103.35 57.83 L 105.74 59.97 L 107.98 62.40 L 110.04 65.10 L 111.90 68.05 L 113.52 71.26 L 114.88 74.70 L 115.95 78.35 L 116.70 82.18 L 117.10 86.19 L 117.13 90.32 L 116.77 94.56 L 116.01 98.87 L 114.81 103.22 L 113.18 107.55 L 111.09 111.84 L 108.55 116.03 L 105.55 120.08 L 102.10 123.95 L 98.19 127.58 L 93.85 130.93"
        stroke="url(#goldenGrad)"
        stroke-width="2"
        fill="none"
        stroke-linecap="round"
        filter="url(#glow)"/>

  <!-- Central phi symbol -->
  <text x="76" y="98.8"
        font-family="Georgia, serif"
        font-size="60.800000000000004"
        font-weight="bold"
        fill="url(#goldenGrad)"
        text-anchor="middle"
        opacity="0.95"
        filter="url(#glow)">φ</text>

  <!-- Small golden ratio value -->
  <text x="76" y="129.2"
        font-family="monospace"
        font-size="9.12"
        fill="#c9a84e"
        text-anchor="middle"
        opacity="0.7">1.618</text>
</svg>