<?xml version="1.0" encoding="UTF-8"?>
<svg width="144" height="144" viewBox="0 0 144 144" xmlns="http://www.w3.org/2000/svg">
  <defs>
    <linearGradient id="goldenGrad" x1="0%" y1="0%" x2="100%" y2="100%">
      <stop offset="0%" stop-color="#FFD700"/>
      <stop offset="50%" stop-color="#c9a84e"/>
      <stop offset="100%" stop-color="#B8860B"/>
    </linearGradient>
    <radialGradient id="bgGrad" cx="50%" cy="50%" r="50%">
      <stop offset="0%" stop-color="#1a1a1a"/>
      <stop offset="100%" stop-color="#0a0a0a"/>
    </radialGradient>
    <filter id="glow">
      <feGaussianBlur stdDeviation="2" result="coloredBlur"/>
      <feMerge>
        <feMergeNode in="coloredBlur"/>
        <feMergeNode in="SourceGraphic"/>
      </feMerge>
    </filter>
  </defs>

  <!-- Background with rounded corners -->
  <rect width="144" height="144" fill="url(#bgGrad)" rx="17.28"/>

  <!-- Fibonacci rectangles (subtle background pattern) -->
  <g opacity="0.15">
    <rect x="69.05353846153847" y="69.05353846153847"
              width="5.8929230769230765" height="5.8929230769230765"
              fill="#c9a84e"
              opacity="0.3"
              rx="0.47143384615384615"
              transform="rotate(0 72 72)"/>
    <rect x="69.05353846153847" y="70.82141538461539"
              width="5.8929230769230765" height="5.8929230769230765"
              fill="#c9a84e"
              opacity="0.35714285714285715"
              rx="0.47143384615384615"
              transform="rotate(90 72 73.76787692307693)"/>
    <rect x="64.33919999999999" y="67.87495384615384"
              width="11.785846153846153" height="11.785846153846153"
              fill="#c9a84e"
              opacity="0.41428571428571426"
              rx="0.9428676923076923"
              transform="rotate(180 70.23212307692307 73.76787692307693)"/>
    <rect x="61.39273846153846" y="61.39273846153846"
              width="17.67876923076923" height="17.67876923076923"
              fill="#c9a84e"
              opacity="0.4714285714285714"
              rx="1.4143015384615385"
              transform="rotate(270 70.23212307692307 70.23212307692307)"/>
    <rect x="60.803446153846146" y="55.49981538461538"
              width="29.46461538461538" height="29.46461538461538"
              fill="#c9a84e"
              opacity="0.5285714285714286"
              rx="2.3571692307692307"
              transform="rotate(360 75.53575384615384 70.23212307692307)"/>
    <rect x="51.964061538461536" y="55.49981538461539"
              width="47.14338461538461" height="47.14338461538461"
              fill="#c9a84e"
              opacity="0.5857142857142857"
              rx="3.771470769230769"
              transform="rotate(450 75.53575384615384 79.07150769230769)"/>
    <rect x="23.088738461538462" y="40.767507692307696"
              width="76.60799999999999" height="76.60799999999999"
              fill="#c9a84e"
              opacity="0.6428571428571428"
              rx="6.128639999999999"
              transform="rotate(540 61.39273846153846 79.07150769230769)"/>
    
  </g>

  <!-- Outer circle -->
  <circle cx="72" cy="72" r="60.192"
          fill="none" stroke="url(#goldenGrad)" stroke-width="1" opacity="0.3"/>

  <!-- Golden spiral -->
  <path d="M 72.79 72.00 L 72.81 72.08 L 72.82 72.15 L 72.83 72.24 L 72.83 72.32 L 72.82 72.41 L 72.80 72.49 L 72.77 72.58 L 72.74 72.67 L 72.69 72.75 L 72.64 72.84 L 72.57 72.92 L 72.50 72.99 L 72.42 73.07 L 72.33 73.13 L 72.23 73.19 L 72.12 73.24 L 72.01 73.28 L 71.88 73.31 L 71.76 73.33 L 71.63 73.34 L 71.49 73.34 L 71.35 73.32 L 71.21 73.29 L 71.07 73.25 L 70.93 73.19 L 70.79 73.12 L 70.65 73.03 L 70.52 72.93 L 70.40 72.81 L 70.28 72.68 L 70.17 72.53 L 70.08 72.37 L 70.00 72.20 L 69.93 72.02 L 69.88 71.82 L 69.84 71.62 L 69.83 71.40 L 69.83 71.18 L 69.86 70.96 L 69.90 70.73 L 69.97 70.50 L 70.06 70.27 L 70.18 70.05 L 70.32 69.83 L 70.49 69.62 L 70.68 69.42 L 70.89 69.23 L 71.12 69.05 L 71.38 68.90 L 71.66 68.77 L 71.96 68.66 L 72.27 68.57 L 72.60 68.51 L 72.95 68.49 L 73.31 68.49 L 73.67 68.53 L 74.04 68.60 L 74.41 68.71 L 74.78 68.86 L 75.14 69.05 L 75.50 69.27 L 75.84 69.54 L 76.17 69.84 L 76.47 70.19 L 76.75 70.56 L 77.01 70.98 L 77.22 71.43 L 77.40 71.91 L 77.54 72.42 L 77.64 72.95 L 77.69 73.51 L 77.68 74.09 L 77.62 74.67 L 77.50 75.27 L 77.33 75.87 L 77.09 76.47 L 76.79 77.06 L 76.43 77.64 L 76.00 78.19 L 75.51 78.72 L 74.96 79.22 L 74.35 79.67 L 73.68 80.08 L 72.96 80.44 L 72.18 80.73 L 71.36 80.96 L 70.50 81.12 L 69.60 81.20 L 68.67 81.19 L 67.72 81.10 L 66.75 80.92 L 65.78 80.64 L 64.81 80.26 L 63.86 79.78 L 62.92 79.19 L 62.02 78.51 L 61.16 77.72 L 60.36 76.84 L 59.62 75.85 L 58.95 74.77 L 58.37 73.61 L 57.89 72.35 L 57.51 71.03 L 57.26 69.63 L 57.12 68.18 L 57.12 66.68 L 57.26 65.14 L 57.56 63.58 L 58.00 62.01 L 58.61 60.44 L 59.38 58.89 L 60.31 57.38 L 61.41 55.92 L 62.68 54.53 L 64.11 53.22 L 65.69 52.02 L 67.43 50.94 L 69.31 49.99 L 71.33 49.20 L 73.47 48.59 L 75.73 48.16 L 78.07 47.93 L 80.50 47.92 L 82.98 48.14 L 85.51 48.60 L 88.05 49.31 L 90.59 50.28 L 93.09 51.51 L 95.55 53.01 L 97.91 54.78 L 100.17 56.82 L 102.29 59.12 L 104.25 61.67 L 106.01 64.47 L 107.55 67.51 L 108.83 70.77 L 109.85 74.22 L 110.55 77.86 L 110.93 81.65 L 110.97 85.57 L 110.63 89.59 L 109.90 93.67 L 108.77 97.78 L 107.22 101.89 L 105.25 105.95 L 102.84 109.92 L 100.00 113.76 L 96.72 117.42 L 93.02 120.87 L 88.91 124.04"
        stroke="url(#goldenGrad)"
        stroke-width="2"
        fill="none"
        stroke-linecap="round"
        filter="url(#glow)"/>

  <!-- Central phi symbol -->
  <text x="72" y="93.6"
        font-family="Georgia, serif"
        font-size="57.6"
        font-weight="bold"
        fill="url(#goldenGrad)"
        text-anchor="middle"
        opacity="0.95"
        filter="url(#glow)">φ</text>

  <!-- Small golden ratio value -->
  <text x="72" y="122.4"
        font-family="monospace"
        font-size="8.64"
        fill="#c9a84e"
        text-anchor="middle"
        opacity="0.7">1.618</text>
</svg>