<?xml version="1.0" encoding="UTF-8"?>
<svg width="72" height="72" viewBox="0 0 72 72" xmlns="http://www.w3.org/2000/svg">
  <defs>
    <linearGradient id="goldenGrad" x1="0%" y1="0%" x2="100%" y2="100%">
      <stop offset="0%" stop-color="#FFD700"/>
      <stop offset="50%" stop-color="#c9a84e"/>
      <stop offset="100%" stop-color="#B8860B"/>
    </linearGradient>
    <radialGradient id="bgGrad" cx="50%" cy="50%" r="50%">
      <stop offset="0%" stop-color="#1a1a1a"/>
      <stop offset="100%" stop-color="#0a0a0a"/>
    </radialGradient>
    <filter id="glow">
      <feGaussianBlur stdDeviation="2" result="coloredBlur"/>
      <feMerge>
        <feMergeNode in="coloredBlur"/>
        <feMergeNode in="SourceGraphic"/>
      </feMerge>
    </filter>
  </defs>

  <!-- Background with rounded corners -->
  <rect width="72" height="72" fill="url(#bgGrad)" rx="8.64"/>

  <!-- Fibonacci rectangles (subtle background pattern) -->
  <g opacity="0.15">
    <rect x="34.52676923076923" y="34.52676923076923"
              width="2.9464615384615382" height="2.9464615384615382"
              fill="#c9a84e"
              opacity="0.3"
              rx="0.23571692307692307"
              transform="rotate(0 36 36)"/>
    <rect x="34.52676923076923" y="35.410707692307696"
              width="2.9464615384615382" height="2.9464615384615382"
              fill="#c9a84e"
              opacity="0.35714285714285715"
              rx="0.23571692307692307"
              transform="rotate(90 36 36.88393846153846)"/>
    <rect x="32.169599999999996" y="33.93747692307692"
              width="5.8929230769230765" height="5.8929230769230765"
              fill="#c9a84e"
              opacity="0.41428571428571426"
              rx="0.47143384615384615"
              transform="rotate(180 35.11606153846154 36.88393846153846)"/>
    <rect x="30.69636923076923" y="30.69636923076923"
              width="8.839384615384615" height="8.839384615384615"
              fill="#c9a84e"
              opacity="0.4714285714285714"
              rx="0.7071507692307692"
              transform="rotate(270 35.11606153846154 35.11606153846154)"/>
    <rect x="30.401723076923073" y="27.74990769230769"
              width="14.73230769230769" height="14.73230769230769"
              fill="#c9a84e"
              opacity="0.5285714285714286"
              rx="1.1785846153846153"
              transform="rotate(360 37.76787692307692 35.11606153846154)"/>
    <rect x="25.982030769230768" y="27.749907692307694"
              width="23.571692307692306" height="23.571692307692306"
              fill="#c9a84e"
              opacity="0.5857142857142857"
              rx="1.8857353846153846"
              transform="rotate(450 37.76787692307692 39.535753846153845)"/>
    <rect x="11.544369230769231" y="20.383753846153848"
              width="38.303999999999995" height="38.303999999999995"
              fill="#c9a84e"
              opacity="0.6428571428571428"
              rx="3.0643199999999995"
              transform="rotate(540 30.69636923076923 39.535753846153845)"/>
    
  </g>

  <!-- Outer circle -->
  <circle cx="36" cy="36" r="30.096"
          fill="none" stroke="url(#goldenGrad)" stroke-width="1" opacity="0.3"/>

  <!-- Golden spiral -->
  <path d="M 36.40 36.00 L 36.41 36.04 L 36.41 36.08 L 36.41 36.12 L 36.41 36.16 L 36.41 36.20 L 36.40 36.25 L 36.39 36.29 L 36.37 36.33 L 36.35 36.38 L 36.32 36.42 L 36.29 36.46 L 36.25 36.50 L 36.21 36.53 L 36.16 36.57 L 36.11 36.59 L 36.06 36.62 L 36.00 36.64 L 35.94 36.66 L 35.88 36.67 L 35.81 36.67 L 35.74 36.67 L 35.67 36.66 L 35.60 36.65 L 35.53 36.63 L 35.46 36.60 L 35.39 36.56 L 35.33 36.52 L 35.26 36.47 L 35.20 36.41 L 35.14 36.34 L 35.09 36.27 L 35.04 36.19 L 35.00 36.10 L 34.97 36.01 L 34.94 35.91 L 34.92 35.81 L 34.91 35.70 L 34.92 35.59 L 34.93 35.48 L 34.95 35.36 L 34.99 35.25 L 35.03 35.14 L 35.09 35.02 L 35.16 34.91 L 35.24 34.81 L 35.34 34.71 L 35.44 34.61 L 35.56 34.53 L 35.69 34.45 L 35.83 34.38 L 35.98 34.33 L 36.14 34.29 L 36.30 34.26 L 36.47 34.24 L 36.65 34.25 L 36.83 34.26 L 37.02 34.30 L 37.20 34.36 L 37.39 34.43 L 37.57 34.52 L 37.75 34.64 L 37.92 34.77 L 38.08 34.92 L 38.24 35.09 L 38.38 35.28 L 38.50 35.49 L 38.61 35.71 L 38.70 35.95 L 38.77 36.21 L 38.82 36.48 L 38.84 36.76 L 38.84 37.04 L 38.81 37.34 L 38.75 37.64 L 38.66 37.94 L 38.55 38.23 L 38.40 38.53 L 38.21 38.82 L 38.00 39.10 L 37.76 39.36 L 37.48 39.61 L 37.18 39.84 L 36.84 40.04 L 36.48 40.22 L 36.09 40.37 L 35.68 40.48 L 35.25 40.56 L 34.80 40.60 L 34.33 40.60 L 33.86 40.55 L 33.38 40.46 L 32.89 40.32 L 32.41 40.13 L 31.93 39.89 L 31.46 39.60 L 31.01 39.25 L 30.58 38.86 L 30.18 38.42 L 29.81 37.93 L 29.48 37.39 L 29.19 36.80 L 28.95 36.18 L 28.76 35.51 L 28.63 34.82 L 28.56 34.09 L 28.56 33.34 L 28.63 32.57 L 28.78 31.79 L 29.00 31.00 L 29.30 30.22 L 29.69 29.45 L 30.16 28.69 L 30.71 27.96 L 31.34 27.26 L 32.05 26.61 L 32.85 26.01 L 33.72 25.47 L 34.66 25.00 L 35.67 24.60 L 36.74 24.29 L 37.86 24.08 L 39.04 23.97 L 40.25 23.96 L 41.49 24.07 L 42.75 24.30 L 44.03 24.66 L 45.29 25.14 L 46.55 25.76 L 47.77 26.51 L 48.96 27.39 L 50.09 28.41 L 51.15 29.56 L 52.12 30.84 L 53.00 32.24 L 53.77 33.75 L 54.42 35.38 L 54.92 37.11 L 55.28 38.93 L 55.47 40.82 L 55.48 42.78 L 55.31 44.79 L 54.95 46.84 L 54.38 48.89 L 53.61 50.94 L 52.62 52.97 L 51.42 54.96 L 50.00 56.88 L 48.36 58.71 L 46.51 60.43 L 44.45 62.02"
        stroke="url(#goldenGrad)"
        stroke-width="2"
        fill="none"
        stroke-linecap="round"
        filter="url(#glow)"/>

  <!-- Central phi symbol -->
  <text x="36" y="46.8"
        font-family="Georgia, serif"
        font-size="28.8"
        font-weight="bold"
        fill="url(#goldenGrad)"
        text-anchor="middle"
        opacity="0.95"
        filter="url(#glow)">φ</text>

  <!-- Small golden ratio value -->
  <text x="36" y="61.2"
        font-family="monospace"
        font-size="4.32"
        fill="#c9a84e"
        text-anchor="middle"
        opacity="0.7">1.618</text>
</svg>