<?xml version="1.0" encoding="UTF-8"?>
<svg width="128" height="128" viewBox="0 0 128 128" xmlns="http://www.w3.org/2000/svg">
  <defs>
    <linearGradient id="goldenGrad" x1="0%" y1="0%" x2="100%" y2="100%">
      <stop offset="0%" stop-color="#FFD700"/>
      <stop offset="50%" stop-color="#c9a84e"/>
      <stop offset="100%" stop-color="#B8860B"/>
    </linearGradient>
    <radialGradient id="bgGrad" cx="50%" cy="50%" r="50%">
      <stop offset="0%" stop-color="#1a1a1a"/>
      <stop offset="100%" stop-color="#0a0a0a"/>
    </radialGradient>
    <filter id="glow">
      <feGaussianBlur stdDeviation="2" result="coloredBlur"/>
      <feMerge>
        <feMergeNode in="coloredBlur"/>
        <feMergeNode in="SourceGraphic"/>
      </feMerge>
    </filter>
  </defs>

  <!-- Background with rounded corners -->
  <rect width="128" height="128" fill="url(#bgGrad)" rx="15.36"/>

  <!-- Fibonacci rectangles (subtle background pattern) -->
  <g opacity="0.15">
    <rect x="61.380923076923075" y="61.380923076923075"
              width="5.238153846153845" height="5.238153846153845"
              fill="#c9a84e"
              opacity="0.3"
              rx="0.4190523076923076"
              transform="rotate(0 64 64)"/>
    <rect x="61.380923076923075" y="62.95236923076923"
              width="5.238153846153845" height="5.238153846153845"
              fill="#c9a84e"
              opacity="0.35714285714285715"
              rx="0.4190523076923076"
              transform="rotate(90 64 65.57144615384615)"/>
    <rect x="57.190400000000004" y="60.33329230769231"
              width="10.47630769230769" height="10.47630769230769"
              fill="#c9a84e"
              opacity="0.41428571428571426"
              rx="0.8381046153846152"
              transform="rotate(180 62.42855384615385 65.57144615384615)"/>
    <rect x="54.57132307692308" y="54.57132307692308"
              width="15.714461538461535" height="15.714461538461535"
              fill="#c9a84e"
              opacity="0.4714285714285714"
              rx="1.2571569230769228"
              transform="rotate(270 62.42855384615385 62.42855384615385)"/>
    <rect x="54.04750769230769" y="49.33316923076923"
              width="26.190769230769227" height="26.190769230769227"
              fill="#c9a84e"
              opacity="0.5285714285714286"
              rx="2.0952615384615383"
              transform="rotate(360 67.1428923076923 62.42855384615385)"/>
    <rect x="46.19027692307692" y="49.33316923076923"
              width="41.90523076923076" height="41.90523076923076"
              fill="#c9a84e"
              opacity="0.5857142857142857"
              rx="3.352418461538461"
              transform="rotate(450 67.1428923076923 70.28578461538461)"/>
    <rect x="20.523323076923084" y="36.23778461538462"
              width="68.09599999999999" height="68.09599999999999"
              fill="#c9a84e"
              opacity="0.6428571428571428"
              rx="5.447679999999999"
              transform="rotate(540 54.57132307692308 70.28578461538461)"/>
    
  </g>

  <!-- Outer circle -->
  <circle cx="64" cy="64" r="53.504000000000005"
          fill="none" stroke="url(#goldenGrad)" stroke-width="1" opacity="0.3"/>

  <!-- Golden spiral -->
  <path d="M 64.70 64.00 L 64.72 64.07 L 64.73 64.14 L 64.74 64.21 L 64.74 64.28 L 64.73 64.36 L 64.71 64.44 L 64.69 64.52 L 64.65 64.59 L 64.61 64.67 L 64.56 64.74 L 64.51 64.82 L 64.44 64.88 L 64.37 64.95 L 64.29 65.01 L 64.20 65.06 L 64.11 65.10 L 64.00 65.14 L 63.90 65.17 L 63.78 65.19 L 63.67 65.19 L 63.55 65.19 L 63.42 65.18 L 63.30 65.15 L 63.17 65.11 L 63.05 65.06 L 62.92 65.00 L 62.80 64.92 L 62.69 64.83 L 62.58 64.72 L 62.47 64.60 L 62.38 64.47 L 62.29 64.33 L 62.22 64.18 L 62.16 64.02 L 62.11 63.84 L 62.08 63.66 L 62.07 63.47 L 62.07 63.27 L 62.09 63.07 L 62.14 62.87 L 62.20 62.67 L 62.28 62.46 L 62.38 62.26 L 62.51 62.07 L 62.66 61.88 L 62.82 61.70 L 63.01 61.54 L 63.22 61.38 L 63.45 61.24 L 63.70 61.13 L 63.96 61.03 L 64.24 60.95 L 64.54 60.90 L 64.84 60.88 L 65.16 60.88 L 65.48 60.91 L 65.81 60.98 L 66.14 61.08 L 66.47 61.21 L 66.79 61.38 L 67.11 61.58 L 67.42 61.81 L 67.71 62.08 L 67.98 62.39 L 68.23 62.72 L 68.45 63.09 L 68.64 63.49 L 68.80 63.92 L 68.93 64.37 L 69.01 64.85 L 69.05 65.34 L 69.05 65.85 L 69.00 66.38 L 68.89 66.91 L 68.74 67.44 L 68.53 67.97 L 68.26 68.50 L 67.94 69.01 L 67.56 69.50 L 67.12 69.97 L 66.63 70.41 L 66.09 70.82 L 65.50 71.18 L 64.85 71.50 L 64.16 71.76 L 63.43 71.97 L 62.66 72.11 L 61.86 72.18 L 61.04 72.17 L 60.19 72.09 L 59.34 71.93 L 58.47 71.68 L 57.61 71.34 L 56.76 70.91 L 55.93 70.40 L 55.13 69.79 L 54.37 69.09 L 53.65 68.30 L 52.99 67.42 L 52.40 66.47 L 51.89 65.43 L 51.46 64.32 L 51.12 63.14 L 50.89 61.90 L 50.77 60.60 L 50.78 59.27 L 50.90 57.90 L 51.16 56.52 L 51.56 55.12 L 52.10 53.73 L 52.78 52.35 L 53.61 51.00 L 54.59 49.71 L 55.71 48.47 L 56.98 47.31 L 58.39 46.24 L 59.94 45.28 L 61.61 44.44 L 63.41 43.74 L 65.31 43.19 L 67.31 42.81 L 69.40 42.61 L 71.55 42.60 L 73.76 42.79 L 76.01 43.20 L 78.27 43.83 L 80.52 44.70 L 82.75 45.79 L 84.93 47.12 L 87.03 48.70 L 89.04 50.50 L 90.93 52.55 L 92.67 54.82 L 94.23 57.31 L 95.60 60.01 L 96.74 62.90 L 97.64 65.98 L 98.27 69.21 L 98.61 72.58 L 98.64 76.06 L 98.34 79.63 L 97.69 83.26 L 96.68 86.92 L 95.31 90.57 L 93.55 94.18 L 91.41 97.71 L 88.89 101.12 L 85.98 104.38 L 82.69 107.44 L 79.03 110.26"
        stroke="url(#goldenGrad)"
        stroke-width="2"
        fill="none"
        stroke-linecap="round"
        filter="url(#glow)"/>

  <!-- Central phi symbol -->
  <text x="64" y="83.2"
        font-family="Georgia, serif"
        font-size="51.2"
        font-weight="bold"
        fill="url(#goldenGrad)"
        text-anchor="middle"
        opacity="0.95"
        filter="url(#glow)">φ</text>

  <!-- Small golden ratio value -->
  <text x="64" y="108.8"
        font-family="monospace"
        font-size="7.68"
        fill="#c9a84e"
        text-anchor="middle"
        opacity="0.7">1.618</text>
</svg>