<?xml version="1.0" encoding="UTF-8"?>
<svg width="48" height="48" viewBox="0 0 48 48" xmlns="http://www.w3.org/2000/svg">
  <defs>
    <linearGradient id="goldenGrad" x1="0%" y1="0%" x2="100%" y2="100%">
      <stop offset="0%" stop-color="#FFD700"/>
      <stop offset="50%" stop-color="#c9a84e"/>
      <stop offset="100%" stop-color="#B8860B"/>
    </linearGradient>
    <radialGradient id="bgGrad" cx="50%" cy="50%" r="50%">
      <stop offset="0%" stop-color="#1a1a1a"/>
      <stop offset="100%" stop-color="#0a0a0a"/>
    </radialGradient>
    <filter id="glow">
      <feGaussianBlur stdDeviation="2" result="coloredBlur"/>
      <feMerge>
        <feMergeNode in="coloredBlur"/>
        <feMergeNode in="SourceGraphic"/>
      </feMerge>
    </filter>
  </defs>

  <!-- Background with rounded corners -->
  <rect width="48" height="48" fill="url(#bgGrad)" rx="5.76"/>

  <!-- Fibonacci rectangles (subtle background pattern) -->
  <g opacity="0.15">
    <rect x="23.017846153846154" y="23.017846153846154"
              width="1.9643076923076923" height="1.9643076923076923"
              fill="#c9a84e"
              opacity="0.3"
              rx="0.15714461538461538"
              transform="rotate(0 24 24)"/>
    <rect x="23.017846153846154" y="23.60713846153846"
              width="1.9643076923076923" height="1.9643076923076923"
              fill="#c9a84e"
              opacity="0.35714285714285715"
              rx="0.15714461538461538"
              transform="rotate(90 24 24.589292307692308)"/>
    <rect x="21.4464" y="22.624984615384616"
              width="3.9286153846153846" height="3.9286153846153846"
              fill="#c9a84e"
              opacity="0.41428571428571426"
              rx="0.31428923076923077"
              transform="rotate(180 23.410707692307692 24.589292307692308)"/>
    <rect x="20.464246153846155" y="20.464246153846155"
              width="5.892923076923077" height="5.892923076923077"
              fill="#c9a84e"
              opacity="0.4714285714285714"
              rx="0.4714338461538462"
              transform="rotate(270 23.410707692307692 23.410707692307692)"/>
    <rect x="20.267815384615385" y="18.499938461538463"
              width="9.821538461538461" height="9.821538461538461"
              fill="#c9a84e"
              opacity="0.5285714285714286"
              rx="0.7857230769230769"
              transform="rotate(360 25.178584615384615 23.410707692307692)"/>
    <rect x="17.321353846153848" y="18.499938461538463"
              width="15.714461538461538" height="15.714461538461538"
              fill="#c9a84e"
              opacity="0.5857142857142857"
              rx="1.257156923076923"
              transform="rotate(450 25.178584615384615 26.35716923076923)"/>
    <rect x="7.696246153846154" y="13.58916923076923"
              width="25.536" height="25.536"
              fill="#c9a84e"
              opacity="0.6428571428571428"
              rx="2.0428800000000003"
              transform="rotate(540 20.464246153846155 26.35716923076923)"/>
    
  </g>

  <!-- Outer circle -->
  <circle cx="24" cy="24" r="20.064000000000004"
          fill="none" stroke="url(#goldenGrad)" stroke-width="1" opacity="0.3"/>

  <!-- Golden spiral -->
  <path d="M 24.26 24.00 L 24.27 24.03 L 24.27 24.05 L 24.28 24.08 L 24.28 24.11 L 24.27 24.14 L 24.27 24.16 L 24.26 24.19 L 24.25 24.22 L 24.23 24.25 L 24.21 24.28 L 24.19 24.31 L 24.17 24.33 L 24.14 24.36 L 24.11 24.38 L 24.08 24.40 L 24.04 24.41 L 24.00 24.43 L 23.96 24.44 L 23.92 24.44 L 23.88 24.45 L 23.83 24.45 L 23.78 24.44 L 23.74 24.43 L 23.69 24.42 L 23.64 24.40 L 23.60 24.37 L 23.55 24.34 L 23.51 24.31 L 23.47 24.27 L 23.43 24.23 L 23.39 24.18 L 23.36 24.12 L 23.33 24.07 L 23.31 24.01 L 23.29 23.94 L 23.28 23.87 L 23.28 23.80 L 23.28 23.73 L 23.29 23.65 L 23.30 23.58 L 23.32 23.50 L 23.35 23.42 L 23.39 23.35 L 23.44 23.28 L 23.50 23.21 L 23.56 23.14 L 23.63 23.08 L 23.71 23.02 L 23.79 22.97 L 23.89 22.92 L 23.99 22.89 L 24.09 22.86 L 24.20 22.84 L 24.32 22.83 L 24.44 22.83 L 24.56 22.84 L 24.68 22.87 L 24.80 22.90 L 24.93 22.95 L 25.05 23.02 L 25.17 23.09 L 25.28 23.18 L 25.39 23.28 L 25.49 23.40 L 25.58 23.52 L 25.67 23.66 L 25.74 23.81 L 25.80 23.97 L 25.85 24.14 L 25.88 24.32 L 25.90 24.50 L 25.89 24.70 L 25.87 24.89 L 25.83 25.09 L 25.78 25.29 L 25.70 25.49 L 25.60 25.69 L 25.48 25.88 L 25.33 26.06 L 25.17 26.24 L 24.99 26.41 L 24.78 26.56 L 24.56 26.69 L 24.32 26.81 L 24.06 26.91 L 23.79 26.99 L 23.50 27.04 L 23.20 27.07 L 22.89 27.06 L 22.57 27.03 L 22.25 26.97 L 21.93 26.88 L 21.60 26.75 L 21.29 26.59 L 20.97 26.40 L 20.67 26.17 L 20.39 25.91 L 20.12 25.61 L 19.87 25.28 L 19.65 24.92 L 19.46 24.54 L 19.30 24.12 L 19.17 23.68 L 19.09 23.21 L 19.04 22.73 L 19.04 22.23 L 19.09 21.71 L 19.19 21.19 L 19.33 20.67 L 19.54 20.15 L 19.79 19.63 L 20.10 19.13 L 20.47 18.64 L 20.89 18.18 L 21.37 17.74 L 21.90 17.34 L 22.48 16.98 L 23.10 16.66 L 23.78 16.40 L 24.49 16.20 L 25.24 16.05 L 26.02 15.98 L 26.83 15.97 L 27.66 16.05 L 28.50 16.20 L 29.35 16.44 L 30.20 16.76 L 31.03 17.17 L 31.85 17.67 L 32.64 18.26 L 33.39 18.94 L 34.10 19.71 L 34.75 20.56 L 35.34 21.49 L 35.85 22.50 L 36.28 23.59 L 36.62 24.74 L 36.85 25.95 L 36.98 27.22 L 36.99 28.52 L 36.88 29.86 L 36.63 31.22 L 36.26 32.59 L 35.74 33.96 L 35.08 35.32 L 34.28 36.64 L 33.33 37.92 L 32.24 39.14 L 31.01 40.29 L 29.64 41.35"
        stroke="url(#goldenGrad)"
        stroke-width="2"
        fill="none"
        stroke-linecap="round"
        filter="url(#glow)"/>

  <!-- Central phi symbol -->
  <text x="24" y="31.2"
        font-family="Georgia, serif"
        font-size="19.200000000000003"
        font-weight="bold"
        fill="url(#goldenGrad)"
        text-anchor="middle"
        opacity="0.95"
        filter="url(#glow)">φ</text>

  <!-- Small golden ratio value -->
  <text x="24" y="40.8"
        font-family="monospace"
        font-size="2.88"
        fill="#c9a84e"
        text-anchor="middle"
        opacity="0.7">1.618</text>
</svg>